#!OML:ASF I:\Actors\actors\Patient Classification 2\Patient 1\Session 1\actor1.ASF
:FULLY-SPECIFIED
:DEGREES
513
root -0.674427 18.5282 4.70755 -1.69958 3.255 -4.94306
lowerback 25.6743 2.9612 -2.09886
upperback 3.04187 3.34991 0.667134
thorax -11.0672 1.66426 0.799146
lowerneck -17.2391 -4.45755 -4.60342
upperneck 14.5388 -5.76454 4.68887
head 7.58089 -2.5633 1.62385
rclavicle 5.76476e-015 -2.26615e-014
rhumerus -26.0445 -9.7664 -70.7867
rradius 118.055
rwrist 4.15817
rhand 6.73438 -41.0244
rfingers 7.12502
rthumb 32.0228 -68.2257
lclavicle 5.76476e-015 -2.26615e-014
lhumerus -8.82365 -14.9311 85.7875
lradius 103.399
lwrist 3.23366
lhand 10.6928 -24.7741
lfingers 7.12502
lthumb 35.7831 1.59545
rfemur 7.14226 -2.29108 18.5273
rtibia 1.35174e-014
rfoot -13.4513 -13.2662
rtoes -13.3306
lfemur -12.131 -2.08284 -8.57371
ltibia 31.3796
lfoot -19.0214 3.96674
ltoes -57.5434
514
root -0.709227 18.516 4.6758 -1.63754 3.30046 -4.95761
lowerback 25.7596 2.89843 -1.96776
upperback 3.14598 3.30532 0.691326
thorax -10.9859 1.63744 0.76628
lowerneck -17.3273 -4.42702 -4.68776
upperneck 14.4073 -5.69344 4.69514
head 7.55182 -2.53328 1.64711
rclavicle 3.97569e-016 9.14409e-015
rhumerus -26.4471 -9.04963 -70.8815
rradius 118.311
rwrist 4.45536
rhand 6.42002 -41.131
rfingers 7.12502
rthumb 31.7235 -68.392
lclavicle 3.97569e-016 9.14409e-015
lhumerus -9.01674 -15.0089 85.9036
lradius 103.38
lwrist 3.1945
lhand 10.7351 -24.5373
lfingers 7.12502
lthumb 35.8232 1.82242
rfemur 5.51364 -2.35938 18.6869
rtibia 2.95192
rfoot -14.7713 -12.2442
rtoes -13.6275
lfemur -12.4774 -1.9161 -8.42152
ltibia 31.645
lfoot -19.0139 3.75715
ltoes -57.6144
515
root -0.744115 18.5036 4.64744 -1.61744 3.35539 -4.93969
lowerback 25.8151 2.85646 -1.90354
upperback 3.29332 3.27282 0.740392
thorax -10.8454 1.61969 0.797534
lowerneck -17.3883 -4.41271 -4.72329
upperneck 14.1602 -5.63619 4.60913
head 7.47629 -2.51718 1.63125
rclavicle 4.29375e-014 -2.0276e-014
rhumerus -26.8953 -8.55877 -71.1184
rradius 118.597
rwrist 4.73302
rhand 4.89211 -40.5409
rfingers 7.12502
rthumb 30.2671 -68.0795
lclavicle 4.29375e-014 -2.0276e-014
lhumerus -9.1634 -15.1247 85.9934
lradius 103.293
lwrist 3.23798
lhand 10.7334 -24.3486
lfingers 7.12502
lthumb 35.8216 2.01157
rfemur 4.44311 -2.42773 18.7988
rtibia 4.91853
rfoot -15.6889 -11.5544
rtoes -14.0793
lfemur -12.7853 -1.76213 -8.30911
ltibia 31.9518
lfoot -19.0495 3.55561
ltoes -57.7104
516
root -0.778003 18.4902 4.6228 -1.6103 3.39934 -5.04274
lowerback 25.8736 2.7923 -1.72617
upperback 3.43922 3.24594 0.815924
thorax -10.7039 1.60057 0.791423
lowerneck -17.5122 -4.3806 -4.73995
upperneck 13.9302 -5.56436 4.55859
head 7.41712 -2.48845 1.62476
rclavicle -1.86858e-014 -2.78299e-015
rhumerus -27.343 -8.16708 -71.264
rradius 118.804
rwrist 5.18968
rhand 3.4432 -39.6443
rfingers 7.12502
rthumb 28.884 -67.4279
lclavicle -1.86858e-014 -2.78299e-015
lhumerus -9.28281 -15.1856 86.033
lradius 103.166
lwrist 3.1252
lhand 10.7128 -24.0931
lfingers 7.12502
lthumb 35.8021 2.27175
rfemur 3.61184 -2.48504 19.0338
rtibia 6.43244
rfoot -16.3999 -11.0393
rtoes -14.1615
lfemur -13.0933 -1.60806 -8.05798
ltibia 32.3
lfoot -19.0942 3.33005
ltoes -57.6994
517
root -0.811322 18.4761 4.60239 -1.57571 3.42598 -5.22506
lowerback 25.8977 2.70822 -1.44968
upperback 3.5371 3.21989 0.878749
thorax -10.5932 1.57821 0.713947
lowerneck -17.6066 -4.36308 -4.79065
upperneck 13.7579 -5.51189 4.53231
head 7.3746 -2.46843 1.62969
rclavicle 3.81667e-014 -7.95139e-016
rhumerus -27.9103 -7.84904 -71.3913
rradius 119.055
rwrist 5.63269
rhand 2.79825 -38.4845
rfingers 7.12502
rthumb 28.2678 -66.3718
lclavicle 3.81667e-014 -7.95139e-016
lhumerus -9.49731 -15.1943 86.0395
lradius 103.02
lwrist 2.73303
lhand 10.6665 -23.821
lfingers 7.12502
lthumb 35.7582 2.55458
rfemur 2.86458 -2.5294 19.3534
rtibia 7.71775
rfoot -17.0075 -10.6174
rtoes -14.1938
lfemur -13.4473 -1.4329 -7.71211
ltibia 32.6999
lfoot -19.154 3.06064
ltoes -57.5698
518
root -0.84209 18.4608 4.58888 -1.56716 3.48888 -5.41164
lowerback 25.9185 2.62253 -1.10761
upperback 3.58199 3.20673 0.910564
thorax -10.536 1.55915 0.558492
lowerneck -17.4953 -4.36284 -4.74748
upperneck 13.5071 -5.49526 4.40672
head 7.26746 -2.47333 1.58623
rclavicle 5.06901e-014 -2.38542e-015
rhumerus -28.6106 -8.0997 -71.2201
rradius 119.422
rwrist 7.14999
rhand 6.18219 -39.907
rfingers 7.12502
rthumb 31.4969 -67.2126
lclavicle 5.06901e-014 -2.38542e-015
lhumerus -9.93753 -15.2843 86.0451
lradius 102.953
lwrist 2.16012
lhand 10.6003 -23.5196
lfingers 7.12502
lthumb 35.6955 2.87116
rfemur 2.28036 -2.6008 19.6651
rtibia 8.77136
rfoot -17.5705 -10.3092
rtoes -14.5371
lfemur -13.7959 -1.21763 -7.36965
ltibia 33.1653
lfoot -19.2462 2.70282
ltoes -57.5694
519
root -0.867143 18.4451 4.58363 -1.56816 3.61749 -5.57133
lowerback 25.8803 2.49763 -0.776443
upperback 3.67121 3.14139 0.95484
thorax -10.3981 1.51726 0.444185
lowerneck -17.5763 -4.32413 -4.64043
upperneck 13.2569 -5.42209 4.21059
head 7.1867 -2.45143 1.51329
rclavicle 4.77083e-015 2.50469e-014
rhumerus -29.2488 -7.69811 -71.3315
rradius 119.788
rwrist 6.73542
rhand 4.47521 -39.5808
rfingers 7.12502
rthumb 29.8693 -67.1917
lclavicle 4.77083e-015 2.50469e-014
lhumerus -10.3353 -15.2963 86.0051
lradius 102.915
lwrist 1.58165
lhand 10.4179 -23.2766
lfingers 7.12502
lthumb 35.5226 3.15581
rfemur 1.82504 -2.73638 19.9246
rtibia 9.64939
rfoot -18.0794 -10.0531
rtoes -14.8412
lfemur -14.1507 -0.997783 -7.08202
ltibia 33.6786
lfoot -19.3442 2.2804
ltoes -57.6859
